HIERARCHY
ROOT Hips
{
	OFFSET	0.00	0.00	0.00
	CHANNELS 6 Xposition Yposition Zposition Zrotation Xrotation Yrotation
	JOINT LeftUpLeg
	{
		OFFSET	 0.126116	-0.014019	-0.065224
		CHANNELS 3 Zrotation Xrotation Yrotation
		JOINT LeftLeg
		{
			OFFSET	 0.000000	 0.000000	 0.569914
			CHANNELS 3 Zrotation Xrotation Yrotation
			JOINT LeftFoot
			{
				OFFSET	 0.000000	 0.000000	 0.544423
				CHANNELS 3 Zrotation Xrotation Yrotation
				JOINT LeftToeBase
				{
					OFFSET	 0.000000	 0.000000	 0.207117
					CHANNELS 3 Zrotation Xrotation Yrotation
					End Site
					{
						OFFSET	 0.000000	 0.000000	 0.207117
					}
				}
			}
		}
	}
	JOINT RightUpLeg
	{
		OFFSET	-0.124023	-0.008373	-0.065224
		CHANNELS 3 Zrotation Xrotation Yrotation
		JOINT RightLeg
		{
			OFFSET	 0.000000	 0.000000	 0.570047
			CHANNELS 3 Zrotation Xrotation Yrotation
			JOINT RightFoot
			{
				OFFSET	 0.000000	 0.000000	 0.544354
				CHANNELS 3 Zrotation Xrotation Yrotation
				JOINT RightToeBase
				{
					OFFSET	 0.000000	 0.000000	 0.207540
					CHANNELS 3 Zrotation Xrotation Yrotation
					End Site
					{
						OFFSET	 0.000000	 0.000000	 0.207540
					}
				}
			}
		}
	}
	JOINT Spine
	{
		OFFSET	 0.000184	-0.007763	 0.117403
		CHANNELS 3 Zrotation Xrotation Yrotation
		JOINT Spine1
		{
			OFFSET	 0.000000	 0.000000	 0.137269
			CHANNELS 3 Zrotation Xrotation Yrotation
			JOINT Spine2
			{
				OFFSET	 0.000000	 0.000000	 0.156879
				CHANNELS 3 Zrotation Xrotation Yrotation
				JOINT LeftShoulder
				{
					OFFSET	 0.080501	-0.002496	 0.160144
					CHANNELS 3 Zrotation Xrotation Yrotation
					JOINT LeftArm
					{
						OFFSET	 0.000000	 0.000000	 0.164363
						CHANNELS 3 Zrotation Xrotation Yrotation
						JOINT LeftForeArm
						{
							OFFSET	 0.000000	 0.000000	 0.364576
							CHANNELS 3 Zrotation Xrotation Yrotation
							JOINT LeftHand
							{
								OFFSET	 0.000000	 0.000000	 0.360812
								CHANNELS 3 Zrotation Xrotation Yrotation
								JOINT LeftHandIndex1
								{
									OFFSET	 0.000000	 0.000000	 0.086006
									CHANNELS 3 Zrotation Xrotation Yrotation
									JOINT LeftHandIndex2
									{
										OFFSET	 0.000000	 0.000000	 0.047236
										CHANNELS 3 Zrotation Xrotation Yrotation
										JOINT LeftHandIndex3
										{
											OFFSET	-0.004284	-0.000551	 0.038166
											CHANNELS 3 Zrotation Xrotation Yrotation
											End Site
											{
												OFFSET	-0.004284	-0.000551	 0.038166
											}
										}
									}
								}
							}
						}
					}
				}
				JOINT Neck
				{
					OFFSET	 0.000000	 0.000000	 0.176489
					CHANNELS 3 Zrotation Xrotation Yrotation
					JOINT Head
					{
						OFFSET	 0.000000	-0.001747	 0.077940
						CHANNELS 3 Zrotation Xrotation Yrotation
						End Site
						{
							OFFSET	 0.000000	-0.001747	 0.077940
						}
					}
				}
				JOINT RightShoulder
				{
					OFFSET	-0.080363	 0.000306	 0.159706
					CHANNELS 3 Zrotation Xrotation Yrotation
					JOINT RightArm
					{
						OFFSET	 0.000000	 0.000000	 0.164196
						CHANNELS 3 Zrotation Xrotation Yrotation
						JOINT RightForeArm
						{
							OFFSET	 0.000000	 0.000000	 0.365611
							CHANNELS 3 Zrotation Xrotation Yrotation
							JOINT RightHand
							{
								OFFSET	 0.000000	 0.000000	 0.360648
								CHANNELS 3 Zrotation Xrotation Yrotation
								JOINT RightHandIndex1
								{
									OFFSET	 0.000000	 0.000000	 0.069977
									CHANNELS 3 Zrotation Xrotation Yrotation
									JOINT RightHandIndex2
									{
										OFFSET	 0.000000	 0.000000	 0.052305
										CHANNELS 3 Zrotation Xrotation Yrotation
										JOINT RightHandIndex3
										{
											OFFSET	 0.009002	-0.000782	 0.042196
											CHANNELS 3 Zrotation Xrotation Yrotation
											End Site
											{
												OFFSET	 0.009002	-0.000782	 0.042196
											}
										}
									}
								}
							}
						}
					}
				}
			}
		}
	}
}
MOTION
Frames:    4
Frame Time: 0.03333334
 7.140110	 0.149819	 0.518558	-177.004100	 0.662010	 3.701687	 5.053085	-3.981652	 176.478500	-11.245760	-33.744130	-5.157710	 171.908600	 86.583730	 179.435400	-2.377583	 30.158420	-0.037314	 1.765272	-12.664540	 178.951600	 3.657603	-47.629960	 5.719944	-175.376300	 82.113300	-178.682000	 2.403720	 22.113430	-0.130817	 6.692470	 0.054830	-1.510425	 12.244930	-2.574267	 0.700770	 15.166010	-4.536150	 1.608625	-91.809770	 77.619090	 179.123000	 36.779490	 69.876410	-39.815510	-7.973789	-4.000248	-19.864950	 3.417895	-26.750520	-5.971866	-3.812334	 37.924440	-2.927599	-2.450526	 36.184240	 0.754587	-1.378229	 35.397820	-2.634230	 0.537250	 6.071873	-3.202234	 4.189220	-13.881220	-0.523288	 89.765460	 79.256880	-179.645800	-36.420460	 70.329510	 39.112790	 4.225977	-7.823662	 30.720920	-6.818575	-27.468600	 10.812710	 6.437017	 35.671460	-0.771858	 2.830251	 35.756010	-7.813440	-2.350882	 35.473990	 5.254307
 7.139177	 0.149662	 0.518204	-176.833900	 0.703129	 3.698867	 5.037801	-4.097158	 176.498100	-11.159090	-33.891640	-5.137702	 171.978600	 86.433110	 179.434600	-2.376850	 30.297800	-0.040400	 1.769323	-12.719680	 178.983000	 3.689685	-47.746150	 5.763969	-175.604200	 81.926250	-178.440100	 2.403631	 22.165480	-0.129767	 6.669802	 0.026187	-1.551270	 12.199660	-2.651295	 0.707638	 15.089790	-4.631822	 1.613014	-91.809760	 77.597050	 179.143800	 36.649550	 69.856700	-39.630800	-8.023453	-4.022387	-20.141950	 3.363359	-26.764240	-5.974267	-3.812334	 37.924440	-2.927599	-2.450526	 36.184240	 0.754587	-1.378229	 35.397820	-2.634230	 0.480286	 5.997250	-3.230143	 4.125547	-13.803350	-0.508535	 89.764800	 79.276790	-179.639700	-36.326040	 70.401730	 39.064080	 4.261505	-7.784039	 30.456560	-6.845175	-27.486820	 10.814170	 6.437017	 35.671460	-0.771858	 2.830251	 35.756010	-7.813440	-2.350882	 35.473990	 5.254307
 7.137606	 0.137876	 0.517500	-176.629500	 0.794482	 3.739351	 5.003369	-4.342941	 176.542200	-10.974130	-34.232050	-5.098711	 171.954700	 86.130360	 179.603700	-2.375587	 30.532650	-0.045624	 1.865871	-12.930650	 178.968700	 3.922702	-48.236730	 6.061617	-176.091200	 81.521080	-177.802700	 2.403472	 22.254230	-0.127975	 6.641120	-0.064671	-1.593906	 12.148540	-2.850939	 0.673728	 15.005950	-4.861573	 1.633958	-91.808220	 77.618760	 179.165300	 36.588570	 69.754780	-39.632230	-8.110506	-4.043075	-20.575570	 3.238638	-26.812560	-5.980048	-3.812334	 37.924440	-2.927599	-2.450526	 36.184240	 0.754587	-1.378229	 35.397820	-2.634230	 0.466223	 5.687037	-3.499365	 4.104907	-13.570860	-0.249904	 89.764420	 79.253380	-179.622200	-36.269450	 70.487040	 39.088370	 4.247339	-7.729061	 29.997980	-6.914415	-27.546640	 10.818200	 6.437017	 35.671460	-0.771858	 2.830251	 35.756010	-7.813440	-2.350882	 35.473990	 5.254307
 7.134475	 0.137466	 0.516734	-176.643500	 0.829684	 3.688044	 5.062274	-4.582000	 176.661100	-10.821850	-34.592310	-5.016858	 172.220000	 85.831620	 179.552600	-2.374542	 30.723920	-0.049881	 2.049148	-13.516730	 179.044100	 4.262195	-49.407410	 6.597794	-176.240400	 81.200980	-177.446900	 2.402169	 22.934180	-0.114195	 6.581223	 0.027845	-1.518909	 11.976610	-3.090969	 0.652419	 14.762030	-5.151526	 1.644348	-91.803260	 77.717350	 179.210800	 36.615590	 69.582400	-39.871590	-8.178574	-4.041978	-20.872110	 3.108247	-26.894000	-5.987409	-3.812334	 37.924440	-2.927599	-2.450526	 36.184240	 0.754587	-1.378229	 35.397820	-2.634230	 0.278674	 5.562430	-3.362881	 3.899382	-13.638830	-0.534742	 89.766050	 79.150060	-179.618600	-36.392110	 70.555310	 39.472010	 4.207479	-7.716259	 29.580600	-7.043815	-27.639560	 10.825270	 6.437017	 35.671460	-0.771858	 2.830251	 35.756010	-7.813440	-2.350882	 35.473990	 5.254307
